<svg width="200" height="60" viewBox="0 0 200 60" xmlns="http://www.w3.org/2000/svg">
  <!-- Hill silhouette -->
  <path d="M0,60 L50,30 L80,45 L120,20 L160,40 L200,25 L200,60 Z" fill="#7C4E34" />
  
  <!-- Cabin -->
  <g transform="translate(80, 35) scale(0.6)">
    <rect x="0" y="0" width="30" height="20" fill="#A6754E" />
    <polygon points="0,0 15,-10 30,0" fill="#A6754E" />
    <rect x="12" y="10" width="6" height="10" fill="#E8A95C" />
    <rect x="5" y="5" width="5" height="5" fill="#E8A95C" />
    <rect x="20" y="5" width="5" height="5" fill="#E8A95C" />
  </g>
  
  <!-- Pine trees -->
  <g transform="translate(40, 35) scale(0.7)">
    <polygon points="0,15 10,-5 20,15" fill="#4A7C59" />
    <rect x="8" y="15" width="4" height="5" fill="#7C4E34" />
  </g>
  
  <g transform="translate(140, 33) scale(0.7)">
    <polygon points="0,15 10,-5 20,15" fill="#4A7C59" />
    <rect x="8" y="15" width="4" height="5" fill="#7C4E34" />
  </g>
  
  <!-- Text -->
  <text x="100" y="20" font-family="'Playfair Display', serif" font-size="24" font-weight="bold" text-anchor="middle" fill="#7C4E34">Hill Country</text>
  <text x="100" y="40" font-family="'Playfair Display', serif" font-size="22" font-weight="bold" text-anchor="middle" fill="#A6754E">Hideouts</text>
</svg>